<?xml version="1.0" encoding="utf-8"?>
<!-- Generator: Adobe Illustrator 23.0.1, SVG Export Plug-In . SVG Version: 6.00 Build 0)  -->
<svg version="1.1" id="Layer_1" xmlns="http://www.w3.org/2000/svg" xmlns:xlink="http://www.w3.org/1999/xlink" x="0px" y="0px"
	 viewBox="0 0 1080 1080" style="enable-background:new 0 0 1080 1080;" xml:space="preserve">
<linearGradient id="SVGID_1_" gradientUnits="userSpaceOnUse" x1="140.1497" y1="120.5207" x2="982.7029" y2="1004.4355">
	<stop  offset="0" style="stop-color:#FFFFFF"/>
	<stop  offset="1" style="stop-color:#B4B4B4"/>
</linearGradient>
<path style="fill:url(#SVGID_1_);" d="M540,1080L540,1080C241.8,1080,0,838.2,0,540v0C0,241.8,241.8,0,540,0h0
	c298.2,0,540,241.8,540,540v0C1080,838.2,838.2,1080,540,1080z"/>
<g>
	<path d="M371.4,445.2c-34.4-7.1-66.9-13.7-100.3-20.6c9.4-20.3,18.4-40,27.7-60.1c18.1,10.1,35.6,19.9,53.1,29.6
		c0.4-0.3,0.9-0.7,1.3-1c-1.5-3.4-2.9-6.8-4.6-10.2c-9.6-19.8-19.2-39.6-28.8-59.4c-2.5-5.1-2-5.7,3.4-7
		c15.9-4.1,31.7-8.4,47.6-12.6c10.8-2.8,21.6-5.5,33-8.4c1.5,10.1,2.7,19.5,4.2,28.8c2.8,17.9,5.7,35.8,8.4,53.7
		c0.8,5,1.2,10,1.7,15.1c0.6,5.4,1.6,5.9,6.2,3.5c13.9-7.1,27.7-14.6,42-20.7c9.5-4.1,19.8-6.6,30-8.7c10.6-2.2,21.4-3.3,32.2-4.6
		c3.6-0.4,7.4-0.1,11-0.1c-0.4,3.4-1.1,6.4-1,9.3c0,1.2,1.5,3.3,2.4,3.4c1.2,0.1,2.9-1.2,3.7-2.3c1.2-1.7,1.2-5,2.7-5.7
		c3.8-1.8,8.2-4,12.1-3.6c43.5,4.4,82.4,20.2,115.9,48.3c33.2,27.9,55.7,62.8,67.3,104.7c1,3.6,2,7.2,2.9,10.8
		c0.8,3.4,1.5,6.9,1.9,8.7c-2.1,3.8-3.3,6.6-5,9c-0.9,1.3-2.8,1.9-4.2,3c-1.2,0.9-2.2,2.1-3.3,3.1c1.3,1,2.8,2.9,4,2.7
		c3.5-0.5,6.8-1.9,11.3-3.2c4.8,85-24.5,154.8-97.8,200.6c-76.5,47.8-155.2,45.1-231.5-3.2c-24.4-15.4-43.8-36.5-59.2-61
		c-15.4-24.5-25.6-50.9-30.2-79.5c-4.6-28.5-3.4-56.7,3.3-84.7C341.4,494.9,354.1,469.7,371.4,445.2z M701.3,513
		c-0.4-6.7-1-13.5-1.3-20.2c-0.2-4.2-2.3-5.2-5.9-4.3c-4.7,1.2-9.3,2.7-14,3.9c-21.7,5.4-43.3,11.2-65.2,15.8
		c-17.2,3.6-34.6,6-52,8.3c-9.8,1.3-19.9,2.6-29.6,1.7c-19.7-1.9-39.2-5.1-58.8-8.3c-13.6-2.2-27.1-5.1-40.6-8.3
		c-16.1-3.8-32.1-8.2-48.1-12.5c-4.9-1.3-6.4,0.3-6.3,5.1c0.1,12.2-0.3,24.3-0.1,36.5c0.3,18.6,5,36.3,14.2,52.4
		c10.3,18.2,27.3,30.9,50.4,26.3c13.7-2.7,26.9-7.3,40.4-11.1c13.3-3.7,26.4-8.5,39.9-10.9c14-2.5,28.4-1.7,42.3,2.4
		c20.2,6,40.2,12.6,60.4,18.4c9.8,2.8,19.9,3.3,29.9,0c17.4-5.8,27-19.4,33.7-35.3C698.7,553.8,701,533.6,701.3,513z"/>
	<path style="fill:#FFFFFF;" d="M701.3,513c-0.3,20.6-2.6,40.7-10.7,59.8c-6.8,15.9-16.3,29.4-33.7,35.3c-9.9,3.3-20.1,2.8-29.9,0
		c-20.2-5.8-40.2-12.4-60.4-18.4c-13.9-4.1-28.3-4.8-42.3-2.4c-13.5,2.4-26.6,7.1-39.9,10.9c-13.4,3.8-26.7,8.4-40.4,11.1
		c-23.1,4.6-40.1-8.1-50.4-26.3c-9.2-16.2-13.8-33.8-14.2-52.4c-0.2-12.2,0.2-24.3,0.1-36.5c0-4.8,1.4-6.4,6.3-5.1
		c16,4.3,32,8.7,48.1,12.5c13.4,3.2,26.9,6.1,40.6,8.3c19.5,3.2,39.1,6.4,58.8,8.3c9.7,1,19.8-0.4,29.6-1.7
		c17.4-2.3,34.8-4.7,52-8.3c21.9-4.6,43.5-10.4,65.2-15.8c4.7-1.2,9.3-2.6,14-3.9c3.6-0.9,5.7,0,5.9,4.3
		C700.3,499.5,700.9,506.3,701.3,513z M438.9,563.9c0.6,3.4,0.8,7.2,2.1,10.7c1.8,4.9,5,8.8,10.9,9.1c5.7,0.3,9.3-3.3,11.2-7.9
		c3.4-7.9,3.5-16-0.1-24c-2.4-5.5-6.6-7.7-12.6-7.1c-5.9,0.6-8.3,4.5-9.8,9.4C439.7,557.1,439.5,560.3,438.9,563.9z M640.9,563.9
		c-0.3-0.1-0.5-0.2-0.8-0.2c-0.2-2.2,0-4.6-0.5-6.7c-1.3-5.1-3.3-10.3-9-11.8c-5.2-1.3-10-0.3-13.3,4.6c-5.1,7.6-5.2,20.1-0.2,27.8
		c5.4,8.2,15.9,7.8,20.1-1.1C639.1,572.6,639.7,568.1,640.9,563.9z M597.2,540.4c15.1-7.4,29.7-14.6,44.4-21.7
		c-13.4,2.9-26.4,6.7-39.5,10.2C593.7,531.2,593.6,531,597.2,540.4z M437.4,517.9c-0.1,0.2-0.3,0.4-0.4,0.6
		c14.9,7.2,29.8,14.5,45,21.8c1.7-4.3,5.5-8.5-0.6-10.4C466.9,525.5,452.1,521.8,437.4,517.9z"/>
	<path style="fill:#FFFFFF;" d="M176.2,362c0.1,0.8,0.6,2,0.2,2.5c-3,4-9.2,5-10.2,11c-1.3-1.1-3.6-2.1-3.8-3.3
		C161.3,363.7,166.4,359.9,176.2,362z"/>
	<path d="M438.9,563.9c0.6-3.6,0.8-6.8,1.7-9.8c1.5-4.8,3.9-8.8,9.8-9.4c6-0.6,10.2,1.6,12.6,7.1c3.5,8,3.4,16.1,0.1,24
		c-2,4.6-5.5,8.1-11.2,7.9c-5.9-0.3-9.1-4.2-10.9-9.1C439.7,571.1,439.6,567.3,438.9,563.9z"/>
	<path d="M640.9,563.9c-1.2,4.2-1.9,8.7-3.7,12.7c-4.3,8.9-14.8,9.3-20.1,1.1c-5.1-7.8-4.9-20.2,0.2-27.8c3.3-5,8.2-6,13.3-4.6
		c5.7,1.5,7.7,6.6,9,11.8c0.5,2.1,0.4,4.5,0.5,6.7C640.4,563.7,640.7,563.8,640.9,563.9z"/>
	<path d="M597.2,540.4c-3.6-9.4-3.6-9.2,4.9-11.5c13.1-3.5,26.1-7.3,39.5-10.2C627,525.9,612.3,533,597.2,540.4z"/>
	<path d="M437.4,517.9c14.7,4,29.4,7.6,44,12c6.1,1.9,2.3,6.1,0.6,10.4c-15.1-7.3-30-14.6-45-21.8
		C437.2,518.3,437.3,518.1,437.4,517.9z"/>
	<path d="M285.3,880c-2.3-6.1-7.5-8.4-13.5-9.2c-8.3-1.2-16.8-1.5-24.9-3.5c-32.2-7.7-59.8-37.3-58.6-76.2c0.1-4.1,0.2-8.2,0.2-12.3
		h0.1v-5.7c0-5,0-10.1,0-15.1v-52.1c0.1,0,0.2-0.1,0.2-0.1c-0.1-0.2-0.2-0.4-0.2-0.6v-52.5h-0.2c0-19.3,0-38.7,0-58
		c0-5-1.9-9-5.9-12.1c-4.1-3.2-8.2-6.5-12.2-9.7c-13.6-10.7-27.1-21.5-41.7-33c1.8-1.4,2.9-2.1,3.9-2.9c15.7-12.4,31.1-24.9,47-37
		c6.4-4.9,9.1-10.5,9.1-18.6c-0.2-64.9-0.1-129.8-0.1-194.8c0-25.8,10.7-46.1,31.3-61.4c15-11.2,32.3-15.9,50.8-16.8
		c2.7-0.1,5.7-0.3,8.1-1.4c6.2-3.1,9-9.7,7.4-16.6c-1.5-6.8-6.1-10.4-13.8-10.6c-21.3-0.6-41.2,4.4-59.5,15.2
		c-33.1,19.5-52.3,48.1-53.3,87c-0.9,37.1-0.4,74.3-0.4,111.4c0,26.5,0.1,52.9,0.4,79.4c0,3.8-1.2,6.3-4.1,8.6
		c-19.2,15-38.4,30.1-57.6,45.2c-10.4,8.2-10.5,18.2-0.1,26.5c18.5,14.7,37.1,29.5,55.8,43.9c4.4,3.4,6.1,7.1,6.1,12.7
		c-0.3,33-0.1,66-0.1,99.1c0,0.6,0,1.1,0.1,1.7V738c0,21.1-0.2,42,0.1,62.9c0.2,12.3,3.1,24.2,8.3,35.3
		c19.9,42.6,62.1,64.3,104.6,64.1c3.3,0,7.2-2.1,9.9-4.4C287.1,891.8,287.5,885.9,285.3,880z"/>
	<path d="M794.7,880c2.3-6.1,7.5-8.4,13.5-9.2c8.3-1.2,16.8-1.5,24.9-3.5c32.2-7.7,59.8-37.3,58.6-76.2c-0.1-4.1-0.2-8.2-0.2-12.3
		h-0.1v-5.7c0-5,0-10.1,0-15.1v-52.1c-0.1,0-0.2-0.1-0.2-0.1c0.1-0.2,0.2-0.4,0.2-0.6v-52.5h0.2c0-19.3,0-38.7,0-58
		c0-5,1.9-9,5.9-12.1c4.1-3.2,8.2-6.5,12.2-9.7c13.6-10.7,27.1-21.5,41.7-33c-1.8-1.4-2.9-2.1-3.9-2.9c-15.7-12.4-31.1-24.9-47-37
		c-6.4-4.9-9.1-10.5-9.1-18.6c0.2-64.9,0.1-129.8,0.1-194.8c0-25.8-10.7-46.1-31.3-61.4c-15-11.2-32.3-15.9-50.8-16.8
		c-2.7-0.1-5.7-0.3-8.1-1.4c-6.2-3.1-9-9.7-7.4-16.6c1.5-6.8,6.1-10.4,13.8-10.6c21.3-0.6,41.2,4.4,59.5,15.2
		c33.1,19.5,52.3,48.1,53.3,87c0.9,37.1,0.4,74.3,0.4,111.4c0,26.5-0.1,52.9-0.4,79.4c0,3.8,1.2,6.3,4.1,8.6
		c19.2,15,38.4,30.1,57.6,45.2c10.4,8.2,10.5,18.2,0.1,26.5c-18.5,14.7-37.1,29.5-55.8,43.9c-4.4,3.4-6.1,7.1-6.1,12.7
		c0.3,33,0.1,66,0.1,99.1c0,0.6,0,1.1-0.1,1.7V738c0,21.1,0.2,42-0.1,62.9c-0.2,12.3-3.1,24.2-8.3,35.3
		c-19.9,42.6-62.1,64.3-104.6,64.1c-3.3,0-7.2-2.1-9.9-4.4C792.9,891.8,792.5,885.9,794.7,880z"/>
</g>
</svg>
